<svg width="635" height="158" viewBox="0 0 635 158" fill="none" xmlns="http://www.w3.org/2000/svg">
<path d="M48.8333 158C34.0556 158 22.2222 155.222 13.3333 149.667C4.44444 144 0 135.389 0 123.833C0 117.722 1.05556 113.055 3.16667 109.833C5.27778 106.611 8.38889 105 12.5 105C15.5 105 17.9444 105.778 19.8333 107.333C21.7222 108.889 22.6667 110.889 22.6667 113.333C22.6667 115.555 22.5 117.5 22.1667 119.167C22.1667 119.611 22.0556 120.389 21.8333 121.5C21.7222 122.611 21.6667 123.778 21.6667 125C21.6667 130 24.1667 133.722 29.1667 136.167C34.2778 138.611 41.3889 139.833 50.5 139.833C59.9444 139.833 67.3333 138.167 72.6667 134.833C78 131.389 80.6667 126.611 80.6667 120.5C80.6667 116.722 79.4444 113.5 77 110.833C74.5556 108.055 71.5 105.778 67.8333 104C64.1667 102.111 59 99.8332 52.3333 97.1666C43.7778 93.8332 36.7778 90.6666 31.3333 87.6666C26 84.6666 21.3889 80.611 17.5 75.4999C13.7222 70.2777 11.8333 63.8332 11.8333 56.1666C11.8333 48.1666 13.9444 41.0555 18.1667 34.8333C22.5 28.611 28.6667 23.7777 36.6667 20.3333C44.7778 16.8888 54.2778 15.1666 65.1667 15.1666C73.2778 15.1666 80.7222 16.3888 87.5 18.8333C94.2778 21.1666 99.6667 24.7777 103.667 29.6666C107.778 34.5555 109.833 40.5555 109.833 47.6666C109.833 54.6666 108.778 59.9444 106.667 63.4999C104.556 67.0555 101.444 68.8332 97.3333 68.8332C94.4444 68.8332 92 67.9444 90 66.1666C88.1111 64.3888 87.1667 62.2777 87.1667 59.8332C87.1667 57.7221 87.3333 55.7777 87.6667 53.9999C88 50.6666 88.1667 48.5555 88.1667 47.6666C88.1667 42.9999 85.8889 39.4444 81.3333 36.9999C76.7778 34.5555 71.1111 33.3333 64.3333 33.3333C54.7778 33.3333 47.4444 35.111 42.3333 38.6666C37.3333 42.111 34.8333 46.9999 34.8333 53.3333C34.8333 57.5555 36.1111 61.1666 38.6667 64.1666C41.3333 67.1666 44.6111 69.6666 48.5 71.6666C52.3889 73.6666 57.8333 76.0555 64.8333 78.8333C73.2778 82.2777 80.0555 85.3888 85.1667 88.1666C90.2778 90.9444 94.6111 94.7221 98.1667 99.4999C101.833 104.278 103.667 110.167 103.667 117.167C103.667 130.278 98.6667 140.389 88.6667 147.5C78.7778 154.5 65.5 158 48.8333 158Z" fill="#521CC6"/>
<path d="M133.06 157.5C122.171 157.5 113.671 154.444 107.56 148.333C101.56 142.111 98.56 133.944 98.56 123.833C98.56 114.833 100.338 106.944 103.893 100.167C107.449 93.3889 112.06 88.1667 117.727 84.5C123.393 80.8333 129.338 79 135.56 79C141.671 79 146.393 80.8333 149.727 84.5C153.171 88.0555 154.893 92.6667 154.893 98.3333C154.893 103 153.838 106.944 151.727 110.167C149.727 113.389 147.06 115 143.727 115C141.616 115 139.893 114.5 138.56 113.5C137.338 112.5 136.727 111.111 136.727 109.333C136.727 108.556 136.838 107.667 137.06 106.667C137.282 105.667 137.449 104.944 137.56 104.5C138.116 102.833 138.393 101.278 138.393 99.8333C138.393 98.3889 138.004 97.2778 137.227 96.5C136.56 95.7222 135.56 95.3333 134.227 95.3333C131.671 95.3333 129.282 96.5 127.06 98.8333C124.838 101.056 123.06 104.111 121.727 108C120.393 111.889 119.727 116.167 119.727 120.833C119.727 133.722 125.338 140.167 136.56 140.167C141.116 140.167 146.004 138.667 151.227 135.667C156.56 132.556 161.782 127.944 166.893 121.833C168.227 120.278 169.727 119.5 171.393 119.5C172.838 119.5 173.949 120.167 174.727 121.5C175.616 122.833 176.06 124.667 176.06 127C176.06 131.222 175.004 134.667 172.893 137.333C167.671 143.778 161.393 148.778 154.06 152.333C146.838 155.778 139.838 157.5 133.06 157.5Z" fill="#521CC6"/>
<path d="M174.42 157.5C170.198 157.5 167.198 155.278 165.42 150.833C163.754 146.389 162.92 139.278 162.92 129.5C162.92 115.056 164.976 101.333 169.087 88.3333C170.087 85.1111 171.698 82.7778 173.92 81.3333C176.254 79.7778 179.476 79 183.587 79C185.809 79 187.365 79.2778 188.254 79.8333C189.143 80.3889 189.587 81.4444 189.587 83C189.587 84.7778 188.754 88.7778 187.087 95C185.976 99.4444 185.087 103.333 184.42 106.667C183.754 110 183.198 114.111 182.754 119C186.42 109.444 190.532 101.667 195.087 95.6667C199.643 89.6667 204.087 85.3889 208.42 82.8333C212.865 80.2778 216.92 79 220.587 79C227.809 79 231.42 82.6111 231.42 89.8333C231.42 91.2778 230.92 94.7778 229.92 100.333C229.032 104.778 228.587 107.556 228.587 108.667C228.587 112.556 229.976 114.5 232.754 114.5C235.865 114.5 239.865 112.056 244.754 107.167C246.198 105.722 247.698 105 249.254 105C250.698 105 251.809 105.667 252.587 107C253.476 108.222 253.92 109.889 253.92 112C253.92 116.111 252.809 119.333 250.587 121.667C247.476 124.889 243.809 127.667 239.587 130C235.476 132.222 231.087 133.333 226.42 133.333C220.532 133.333 216.032 131.833 212.92 128.833C209.92 125.833 208.42 121.778 208.42 116.667C208.42 115 208.587 113.333 208.92 111.667C209.143 109.444 209.254 107.944 209.254 107.167C209.254 105.389 208.643 104.5 207.42 104.5C205.754 104.5 203.532 106.389 200.754 110.167C198.087 113.833 195.42 118.722 192.754 124.833C190.087 130.944 187.92 137.389 186.254 144.167C185.032 149.389 183.587 152.944 181.92 154.833C180.365 156.611 177.865 157.5 174.42 157.5Z" fill="#521CC6"/>
<path d="M260.267 67.9999C255.6 67.9999 252.1 66.9444 249.767 64.8333C247.434 62.6111 246.267 59.5555 246.267 55.6666C246.267 51.7777 247.767 48.5555 250.767 45.9999C253.878 43.3333 257.711 41.9999 262.267 41.9999C266.378 41.9999 269.711 42.9999 272.267 44.9999C274.823 46.9999 276.1 49.8333 276.1 53.4999C276.1 57.9444 274.656 61.4999 271.767 64.1666C268.878 66.7222 265.045 67.9999 260.267 67.9999ZM258.934 157.5C251.711 157.5 246.434 154.944 243.1 149.833C239.878 144.722 238.267 137.944 238.267 129.5C238.267 124.5 238.878 118.111 240.1 110.333C241.434 102.444 243.1 95.1111 245.1 88.3333C246.1 84.7777 247.434 82.3333 249.1 80.9999C250.767 79.6666 253.434 78.9999 257.1 78.9999C262.767 78.9999 265.6 80.8888 265.6 84.6666C265.6 87.4444 264.545 93.8888 262.434 104C259.767 116.222 258.434 124.5 258.434 128.833C258.434 132.167 258.878 134.722 259.767 136.5C260.656 138.278 262.156 139.167 264.267 139.167C266.267 139.167 268.767 137.778 271.767 135C274.767 132.222 278.767 127.833 283.767 121.833C285.1 120.278 286.6 119.5 288.267 119.5C289.711 119.5 290.823 120.167 291.6 121.5C292.489 122.833 292.934 124.667 292.934 127C292.934 131.444 291.878 134.889 289.767 137.333C278.767 150.778 268.489 157.5 258.934 157.5Z" fill="#521CC6"/>
<path d="M368.116 105.5C369.56 105.5 370.671 106.222 371.449 107.667C372.227 109.111 372.616 110.944 372.616 113.167C372.616 115.944 372.227 118.111 371.449 119.667C370.671 121.111 369.449 122.111 367.783 122.667C361.116 125 353.783 126.333 345.783 126.667C343.56 135.889 339.338 143.333 333.116 149C327.005 154.667 320.227 157.5 312.783 157.5C301.56 157.5 293.394 153.222 288.283 144.667C283.171 136.111 280.616 123.722 280.616 107.5C280.616 93.1667 282.394 77.6111 285.949 60.8333C289.505 43.9444 294.671 29.6111 301.449 17.8333C308.338 5.94445 316.505 0 325.949 0C331.06 0 335.171 2.22223 338.283 6.66667C341.394 11 342.949 16.6667 342.949 23.6667C342.949 32.7778 341.227 41.8333 337.783 50.8333C334.338 59.8333 328.616 69.2778 320.616 79.1667C328.06 79.7222 334.116 82.8334 338.783 88.5C343.449 94.0556 346.227 100.944 347.116 109.167C352.338 108.833 358.56 107.722 365.783 105.833C366.449 105.611 367.227 105.5 368.116 105.5ZM322.116 16.5C319.894 16.5 317.449 19.8333 314.783 26.5C312.227 33.0556 309.838 42 307.616 53.3333C305.394 64.6667 303.727 77.0556 302.616 90.5C309.949 77.0556 315.783 65.2222 320.116 55C324.56 44.6667 326.783 35.5 326.783 27.5C326.783 23.9445 326.338 21.2222 325.449 19.3333C324.671 17.4445 323.56 16.5 322.116 16.5ZM313.449 139.833C316.894 139.833 319.949 138.389 322.616 135.5C325.283 132.611 327.06 128.444 327.949 123C324.505 120.667 321.838 117.611 319.949 113.833C318.171 110.056 317.283 106.056 317.283 101.833C317.283 100.278 317.505 98.1667 317.949 95.5H317.449C312.894 95.5 309.06 97.7778 305.949 102.333C302.949 106.778 301.449 112.778 301.449 120.333C301.449 126.667 302.616 131.5 304.949 134.833C307.394 138.167 310.227 139.833 313.449 139.833Z" fill="#521CC6"/>
<path d="M446.892 105.5C448.336 105.5 449.448 106.222 450.225 107.667C451.003 109.111 451.392 110.944 451.392 113.167C451.392 115.944 451.003 118.111 450.225 119.667C449.448 121.111 448.225 122.111 446.559 122.667C439.892 125 432.559 126.333 424.559 126.667C422.336 135.889 418.114 143.333 411.892 149C405.781 154.667 399.003 157.5 391.559 157.5C380.336 157.5 372.17 153.222 367.059 144.667C361.948 136.111 359.392 123.722 359.392 107.5C359.392 93.1667 361.17 77.6111 364.725 60.8333C368.281 43.9444 373.448 29.6111 380.225 17.8333C387.114 5.94445 395.281 0 404.725 0C409.836 0 413.948 2.22223 417.059 6.66667C420.17 11 421.725 16.6667 421.725 23.6667C421.725 32.7778 420.003 41.8333 416.559 50.8333C413.114 59.8333 407.392 69.2778 399.392 79.1667C406.836 79.7222 412.892 82.8334 417.559 88.5C422.225 94.0556 425.003 100.944 425.892 109.167C431.114 108.833 437.336 107.722 444.559 105.833C445.225 105.611 446.003 105.5 446.892 105.5ZM400.892 16.5C398.67 16.5 396.225 19.8333 393.559 26.5C391.003 33.0556 388.614 42 386.392 53.3333C384.17 64.6667 382.503 77.0556 381.392 90.5C388.725 77.0556 394.559 65.2222 398.892 55C403.336 44.6667 405.559 35.5 405.559 27.5C405.559 23.9445 405.114 21.2222 404.225 19.3333C403.448 17.4445 402.336 16.5 400.892 16.5ZM392.225 139.833C395.67 139.833 398.725 138.389 401.392 135.5C404.059 132.611 405.836 128.444 406.725 123C403.281 120.667 400.614 117.611 398.725 113.833C396.948 110.056 396.059 106.056 396.059 101.833C396.059 100.278 396.281 98.1667 396.725 95.5H396.225C391.67 95.5 387.836 97.7778 384.725 102.333C381.725 106.778 380.225 112.778 380.225 120.333C380.225 126.667 381.392 131.5 383.725 134.833C386.17 138.167 389.003 139.833 392.225 139.833Z" fill="#521CC6"/>
<path d="M525.668 105.5C527.113 105.5 528.224 106.222 529.001 107.667C529.779 109.111 530.168 110.944 530.168 113.167C530.168 115.944 529.779 118.111 529.001 119.667C528.224 121.111 527.001 122.111 525.335 122.667C518.668 125 511.335 126.333 503.335 126.667C501.113 135.889 496.89 143.333 490.668 149C484.557 154.667 477.779 157.5 470.335 157.5C459.113 157.5 450.946 153.222 445.835 144.667C440.724 136.111 438.168 123.722 438.168 107.5C438.168 93.1667 439.946 77.6111 443.501 60.8333C447.057 43.9444 452.224 29.6111 459.001 17.8333C465.89 5.94445 474.057 0 483.501 0C488.613 0 492.724 2.22223 495.835 6.66667C498.946 11 500.501 16.6667 500.501 23.6667C500.501 32.7778 498.779 41.8333 495.335 50.8333C491.89 59.8333 486.168 69.2778 478.168 79.1667C485.613 79.7222 491.668 82.8334 496.335 88.5C501.001 94.0556 503.779 100.944 504.668 109.167C509.89 108.833 516.113 107.722 523.335 105.833C524.001 105.611 524.779 105.5 525.668 105.5ZM479.668 16.5C477.446 16.5 475.001 19.8333 472.335 26.5C469.779 33.0556 467.39 42 465.168 53.3333C462.946 64.6667 461.279 77.0556 460.168 90.5C467.501 77.0556 473.335 65.2222 477.668 55C482.113 44.6667 484.335 35.5 484.335 27.5C484.335 23.9445 483.89 21.2222 483.001 19.3333C482.224 17.4445 481.113 16.5 479.668 16.5ZM471.001 139.833C474.446 139.833 477.501 138.389 480.168 135.5C482.835 132.611 484.613 128.444 485.501 123C482.057 120.667 479.39 117.611 477.501 113.833C475.724 110.056 474.835 106.056 474.835 101.833C474.835 100.278 475.057 98.1667 475.501 95.5H475.001C470.446 95.5 466.613 97.7778 463.501 102.333C460.501 106.778 459.001 112.778 459.001 120.333C459.001 126.667 460.168 131.5 462.501 134.833C464.946 138.167 467.779 139.833 471.001 139.833Z" fill="#521CC6"/>
<path d="M578.944 119.5C580.388 119.5 581.499 120.167 582.277 121.5C583.166 122.833 583.611 124.667 583.611 127C583.611 131.444 582.555 134.889 580.444 137.333C575.666 143.222 570.444 148.056 564.777 151.833C559.222 155.611 552.888 157.5 545.777 157.5C535.999 157.5 528.722 153.056 523.944 144.167C519.277 135.278 516.944 123.778 516.944 109.667C516.944 96.1111 518.666 80.6667 522.111 63.3333C525.666 46 530.833 31.1111 537.611 18.6667C544.499 6.22223 552.666 0 562.111 0C567.444 0 571.611 2.5 574.611 7.50001C577.722 12.3889 579.277 19.4445 579.277 28.6667C579.277 41.8889 575.61 57.2222 568.277 74.6667C560.944 92.1111 550.999 109.389 538.444 126.5C539.222 131.056 540.499 134.333 542.277 136.333C544.055 138.222 546.388 139.167 549.277 139.167C553.833 139.167 557.833 137.889 561.277 135.333C564.722 132.667 569.111 128.167 574.444 121.833C575.777 120.278 577.277 119.5 578.944 119.5ZM558.444 16.5C555.888 16.5 552.999 21.1111 549.777 30.3333C546.555 39.5556 543.722 51 541.277 64.6667C538.833 78.3333 537.499 91.4445 537.277 104C545.166 91 551.444 78 556.111 65C560.777 51.8889 563.111 39.9445 563.111 29.1667C563.111 20.7222 561.555 16.5 558.444 16.5Z" fill="#521CC6"/>
<path d="M629.806 124.5C631.25 124.5 632.361 125.167 633.139 126.5C634.028 127.833 634.473 129.667 634.473 132C634.473 136 633.528 139.444 631.639 142.333C628.528 147.111 624.417 150.833 619.306 153.5C614.306 156.167 608.306 157.5 601.306 157.5C590.639 157.5 582.361 154.333 576.473 148C570.584 141.556 567.639 132.889 567.639 122C567.639 114.333 569.25 107.222 572.473 100.667C575.695 94 580.139 88.7222 585.806 84.8333C591.584 80.9444 598.084 79 605.306 79C611.75 79 616.917 80.9444 620.806 84.8333C624.695 88.6111 626.639 93.7778 626.639 100.333C626.639 108 623.861 114.611 618.306 120.167C612.861 125.611 603.528 129.944 590.306 133.167C592.973 138.278 597.473 140.833 603.806 140.833C608.361 140.833 612.084 139.778 614.973 137.667C617.973 135.556 621.417 132 625.306 127C626.639 125.333 628.139 124.5 629.806 124.5ZM602.473 95.3333C598.361 95.3333 594.861 97.7222 591.973 102.5C589.195 107.278 587.806 113.056 587.806 119.833V120.167C594.361 118.611 599.528 116.278 603.306 113.167C607.084 110.056 608.973 106.444 608.973 102.333C608.973 100.222 608.361 98.5556 607.139 97.3333C606.028 96 604.473 95.3333 602.473 95.3333Z" fill="#521CC6"/>
</svg>
